# xmcd
#
# Track frame offsets:
#	150
#	17087
#	39956
#	56883
#	80643
#	99478
#	125573
#	142693
#	161817
#	177650
#
# Disc length: 2638 seconds
#
# Revision: 1
# Processed by: cddbd v1.5.2PL0 Copyright (c) Steve Scherf et al.
# Submitted via: audiograbber 1.83.01
#
DISCID=840a4c0a
DTITLE=Amber Collins - On the Corner
DYEAR=2010
DGENRE=Bluegrass
TTITLE0=Darlin Corey
TTITLE1=Only the Wind
TTITLE2=Standing on the Corner
TTITLE3=Bill Johnson
TTITLE4=Shadows of the Night
TTITLE5=Rosemary
TTITLE6=Lucky You
TTITLE7=Feels Like a Mile
TTITLE8=New Love
TTITLE9=Farther Along
EXTD=
EXTT0=
EXTT1=
EXTT2=
EXTT3=
EXTT4=
EXTT5=
EXTT6=
EXTT7=
EXTT8=
EXTT9=
PLAYORDER=
